<svg width="25" height="24" viewBox="0 0 25 24" fill="none" xmlns="http://www.w3.org/2000/svg">
<g id="ep:arrow-up">
<path id="Vector" d="M16.4299 12.543L8.07045 20.508C7.93096 20.641 7.74565 20.7151 7.55295 20.7151C7.36024 20.7151 7.17493 20.641 7.03545 20.508L7.02645 20.499C6.95859 20.4345 6.90456 20.357 6.86764 20.271C6.83072 20.185 6.81168 20.0923 6.81168 19.9988C6.81168 19.9052 6.83072 19.8126 6.86764 19.7266C6.90456 19.6406 6.95859 19.563 7.02645 19.4985L14.8984 11.9985L7.02645 4.5015C6.95859 4.43704 6.90456 4.35946 6.86764 4.27345C6.83072 4.18746 6.81168 4.09484 6.81168 4.00126C6.81168 3.90767 6.83072 3.81505 6.86764 3.72905C6.90456 3.64305 6.95859 3.56546 7.02645 3.50101L7.03545 3.492C7.17493 3.35904 7.36024 3.28486 7.55295 3.28486C7.74565 3.28486 7.93096 3.35904 8.07045 3.492L16.4299 11.457C16.5035 11.5271 16.562 11.6113 16.602 11.7046C16.642 11.798 16.6626 11.8985 16.6626 12C16.6626 12.1016 16.642 12.202 16.602 12.2954C16.562 12.3887 16.5035 12.473 16.4299 12.543Z" fill="black"/>
</g>
</svg>
